<svg xmlns="http://www.w3.org/2000/svg" width="805" height="600"><rect width="805" height="600" x="0" y="0" fill="#FFFFFF" id="backgorund"/><g id="viz"><clipPath id="serieClipPath"><rect x="-60" y="-30" width="805" height="600"/></clipPath><g transform="translate(0,0)"><g transform="translate(60,30)" clip-path="url(#serieClipPath)"><g id="axis"><g transform="translate(0,530)" fill="none" font-size="10" font-family="sans-serif" text-anchor="middle"><path class="domain" stroke="currentColor" d="M0,6V0H700V6"/><g class="tick" opacity="1" transform="translate(0,0)"><line stroke="currentColor" y2="6"/><text fill="currentColor" y="9" dy="0.71em">Mar 13</text></g><g class="tick" opacity="1" transform="translate(42.42424242424242,0)"><line stroke="currentColor" y2="6"/><text fill="currentColor" y="9" dy="0.71em">Tue 15</text></g><g class="tick" opacity="1" transform="translate(84.84848484848484,0)"><line stroke="currentColor" y2="6"/><text fill="currentColor" y="9" dy="0.71em">Thu 17</text></g><g class="tick" opacity="1" transform="translate(127.27272727272728,0)"><line stroke="currentColor" y2="6"/><text fill="currentColor" y="9" dy="0.71em">Sat 19</text></g><g class="tick" opacity="1" transform="translate(169.6969696969697,0)"><line stroke="currentColor" y2="6"/><text fill="currentColor" y="9" dy="0.71em">Mon 21</text></g><g class="tick" opacity="1" transform="translate(212.12121212121212,0)"><line stroke="currentColor" y2="6"/><text fill="currentColor" y="9" dy="0.71em">Wed 23</text></g><g class="tick" opacity="1" transform="translate(254.54545454545456,0)"><line stroke="currentColor" y2="6"/><text fill="currentColor" y="9" dy="0.71em">Fri 25</text></g><g class="tick" opacity="1" transform="translate(296.969696969697,0)"><line stroke="currentColor" y2="6"/><text fill="currentColor" y="9" dy="0.71em">Mar 27</text></g><g class="tick" opacity="1" transform="translate(339.3939393939394,0)"><line stroke="currentColor" y2="6"/><text fill="currentColor" y="9" dy="0.71em">Tue 29</text></g><g class="tick" opacity="1" transform="translate(381.8181818181818,0)"><line stroke="currentColor" y2="6"/><text fill="currentColor" y="9" dy="0.71em">Thu 31</text></g><g class="tick" opacity="1" transform="translate(403.03030303030306,0)"><line stroke="currentColor" y2="6"/><text fill="currentColor" y="9" dy="0.71em">April</text></g><g class="tick" opacity="1" transform="translate(445.45454545454544,0)"><line stroke="currentColor" y2="6"/><text fill="currentColor" y="9" dy="0.71em">Apr 03</text></g><g class="tick" opacity="1" transform="translate(487.87878787878793,0)"><line stroke="currentColor" y2="6"/><text fill="currentColor" y="9" dy="0.71em">Tue 05</text></g><g class="tick" opacity="1" transform="translate(530.3030303030303,0)"><line stroke="currentColor" y2="6"/><text fill="currentColor" y="9" dy="0.71em">Thu 07</text></g><g class="tick" opacity="1" transform="translate(572.7272727272727,0)"><line stroke="currentColor" y2="6"/><text fill="currentColor" y="9" dy="0.71em">Sat 09</text></g><g class="tick" opacity="1" transform="translate(615.1515151515151,0)"><line stroke="currentColor" y2="6"/><text fill="currentColor" y="9" dy="0.71em">Mon 11</text></g><g class="tick" opacity="1" transform="translate(657.5757575757576,0)"><line stroke="currentColor" y2="6"/><text fill="currentColor" y="9" dy="0.71em">Wed 13</text></g><g class="tick" opacity="1" transform="translate(700,0)"><line stroke="currentColor" y2="6"/><text fill="currentColor" y="9" dy="0.71em">Fri 15</text></g><text x="700" dy="-5" text-anchor="end" style="font-family: Arial, sans-serif; font-size: 12px; fill: rgb(123, 123, 123); font-weight: bold;">日期</text></g><g transform="translate(0,0)" fill="none" font-size="10" font-family="sans-serif" text-anchor="end"><path class="domain" stroke="currentColor" d="M0,530V0"/><g class="tick" opacity="1" transform="translate(0,530)"><line stroke="currentColor" x2="-6"/><text fill="currentColor" x="-9" dy="0.32em">555</text></g><g class="tick" opacity="1" transform="translate(0,471.1111111111111)"><line stroke="currentColor" x2="-6"/><text fill="currentColor" x="-9" dy="0.32em">560</text></g><g class="tick" opacity="1" transform="translate(0,412.22222222222223)"><line stroke="currentColor" x2="-6"/><text fill="currentColor" x="-9" dy="0.32em">565</text></g><g class="tick" opacity="1" transform="translate(0,353.33333333333337)"><line stroke="currentColor" x2="-6"/><text fill="currentColor" x="-9" dy="0.32em">570</text></g><g class="tick" opacity="1" transform="translate(0,294.44444444444446)"><line stroke="currentColor" x2="-6"/><text fill="currentColor" x="-9" dy="0.32em">575</text></g><g class="tick" opacity="1" transform="translate(0,235.55555555555554)"><line stroke="currentColor" x2="-6"/><text fill="currentColor" x="-9" dy="0.32em">580</text></g><g class="tick" opacity="1" transform="translate(0,176.66666666666669)"><line stroke="currentColor" x2="-6"/><text fill="currentColor" x="-9" dy="0.32em">585</text></g><g class="tick" opacity="1" transform="translate(0,117.77777777777777)"><line stroke="currentColor" x2="-6"/><text fill="currentColor" x="-9" dy="0.32em">590</text></g><g class="tick" opacity="1" transform="translate(0,58.888888888888914)"><line stroke="currentColor" x2="-6"/><text fill="currentColor" x="-9" dy="0.32em">595</text></g><g class="tick" opacity="1" transform="translate(0,0)"><line stroke="currentColor" x2="-6"/><text fill="currentColor" x="-9" dy="0.32em">600</text></g><text x="4" text-anchor="start" dominant-baseline="hanging" style="font-family: Arial, sans-serif; font-size: 12px; fill: rgb(123, 123, 123); font-weight: bold;">收盤</text></g></g><g id="viz"><g><path d="M21.21212121212121,329.77777777777777C31.818181818181817,329.77777777777777,31.818181818181817,494.6666666666667,42.42424242424242,494.6666666666667C53.03030303030303,494.6666666666667,53.03030303030303,494.6666666666667,63.63636363636364,494.6666666666667C74.24242424242425,494.6666666666667,74.24242424242425,212,84.84848484848484,212C95.45454545454545,212,95.45454545454545,223.7777777777778,106.06060606060606,223.7777777777778C137.87878787878788,223.7777777777778,137.87878787878788,164.88888888888889,169.6969696969697,164.88888888888889C180.3030303030303,164.88888888888889,180.3030303030303,200.22222222222223,190.9090909090909,200.22222222222223C201.5151515151515,200.22222222222223,201.5151515151515,117.77777777777777,212.12121212121212,117.77777777777777C222.72727272727272,117.77777777777777,222.72727272727272,105.99999999999997,233.33333333333331,105.99999999999997C243.93939393939394,105.99999999999997,243.93939393939394,23.555555555555532,254.54545454545456,23.555555555555532C286.3636363636364,23.555555555555532,286.3636363636364,188.44444444444443,318.1818181818182,188.44444444444443C328.78787878787875,188.44444444444443,328.78787878787875,129.55555555555557,339.3939393939394,129.55555555555557C350,129.55555555555557,350,0,360.6060606060606,0C371.21212121212125,0,371.21212121212125,35.33333333333333,381.8181818181818,35.33333333333333C392.42424242424244,35.33333333333333,392.42424242424244,129.55555555555557,403.03030303030306,129.55555555555557C456.0606060606061,129.55555555555557,456.0606060606061,259.11111111111114,509.0909090909091,259.11111111111114C519.6969696969697,259.11111111111114,519.6969696969697,400.44444444444446,530.3030303030303,400.44444444444446C540.9090909090909,400.44444444444446,540.9090909090909,388.6666666666667,551.5151515151515,388.6666666666667C583.3333333333333,388.6666666666667,583.3333333333333,494.6666666666667,615.1515151515151,494.6666666666667C625.7575757575758,494.6666666666667,625.7575757575758,506.44444444444446,636.3636363636364,506.44444444444446C646.969696969697,506.44444444444446,646.969696969697,318,657.5757575757576,318C668.1818181818182,318,668.1818181818182,318,678.7878787878788,318" stroke="#1f77b4" fill="none"/><text font-family="sans-serif" font-size="10" class="labels" x="360.6060606060606" y="0" dx="0" dy="-4" text-anchor="middle"/></g></g></g><text y="4" x="4" style="font-family: Arial, sans-serif; font-size: 12px; fill: black; font-weight: bold; dominant-baseline: hanging;"/></g><g id="grid"><rect x="0" y="0" width="805" height="600" fill="none" stroke="#ccc"/></g></g></svg>